HIERARCHY
ROOT Hips
{
	OFFSET 0.000000 0.000000 0.000000
	CHANNELS 6 Xposition Yposition Zposition Zrotation Yrotation Xrotation 
	JOINT LHipJoint
	{
		OFFSET 0.000000 0.000000 0.000000
		CHANNELS 3 Zrotation Yrotation Xrotation
		JOINT LeftUpLeg
		{
			OFFSET 1.363060 -1.794630 0.839290
			CHANNELS 3 Zrotation Yrotation Xrotation
			JOINT LeftLeg
			{
				OFFSET 2.448110 -6.726130 0.000000
				CHANNELS 3 Zrotation Yrotation Xrotation
				JOINT LeftFoot
				{
					OFFSET 2.562200 -7.039590 0.000000
					CHANNELS 3 Zrotation Yrotation Xrotation
					JOINT LeftToeBase
					{
						OFFSET 0.157640 -0.433110 2.322550
						CHANNELS 3 Zrotation Yrotation Xrotation
						End Site
						{
							OFFSET 0.000000 0.000000 0.000000
						}
					}
				}
			}
		}
	}
	JOINT RHipJoint
	{
		OFFSET 0.000000 0.000000 0.000000
		CHANNELS 3 Zrotation Yrotation Xrotation
		JOINT RightUpLeg
		{
			OFFSET -1.305520 -1.794630 0.839290
			CHANNELS 3 Zrotation Yrotation Xrotation
			JOINT RightLeg
			{
				OFFSET -2.542530 -6.985550 0.000000
				CHANNELS 3 Zrotation Yrotation Xrotation
				JOINT RightFoot
				{
					OFFSET -2.568260 -7.056230 0.000000
					CHANNELS 3 Zrotation Yrotation Xrotation
					JOINT RightToeBase
					{
						OFFSET -0.164730 -0.452590 2.363150
						CHANNELS 3 Zrotation Yrotation Xrotation
						End Site
						{
							OFFSET 0.000000 0.000000 0.000000
						}
					}
				}
			}
		}
	}
	JOINT LowerBack
	{
		OFFSET 0.000000 0.000000 0.000000
		CHANNELS 3 Zrotation Yrotation Xrotation
		JOINT Spine
		{
			OFFSET 0.028270 2.035590 -0.193380
			CHANNELS 3 Zrotation Yrotation Xrotation
			JOINT Spine1
			{
				OFFSET 0.056720 2.048850 -0.042750
				CHANNELS 3 Zrotation Yrotation Xrotation
				JOINT Neck
				{
					OFFSET 0.000000 0.000000 0.000000
					CHANNELS 3 Zrotation Yrotation Xrotation
					JOINT Neck1
					{
						OFFSET -0.054170 1.746240 0.172020
						CHANNELS 3 Zrotation Yrotation Xrotation
						JOINT Head
						{
							OFFSET 0.104070 1.761360 -0.123970
							CHANNELS 3 Zrotation Yrotation Xrotation
							End Site
							{
								OFFSET 0.000000 0.000000 0.000000
							}
						}
					}
				}
				JOINT LeftShoulder
				{
					OFFSET 0.000000 0.000000 0.000000
					CHANNELS 3 Zrotation Yrotation Xrotation
					JOINT LeftArm
					{
						OFFSET 3.362410 1.200890 -0.311210
						CHANNELS 3 Zrotation Yrotation Xrotation
						JOINT LeftForeArm
						{
							OFFSET 4.983000 -0.000000 -0.000000
							CHANNELS 3 Zrotation Yrotation Xrotation
							JOINT LeftHand
							{
								OFFSET 3.483560 -0.000000 -0.000000
								CHANNELS 3 Zrotation Yrotation Xrotation
								JOINT LeftFingerBase
								{
									OFFSET 0.000000 0.000000 0.000000
									CHANNELS 3 Zrotation Yrotation Xrotation
									JOINT LeftHandIndex1
									{
										OFFSET 0.715260 -0.000000 -0.000000
										CHANNELS 3 Zrotation Yrotation Xrotation
										End Site
										{
											OFFSET 0.000000 0.000000 0.000000
										}
									}
								}
								JOINT LThumb
								{
									OFFSET 0.000000 0.000000 0.000000
									CHANNELS 3 Zrotation Yrotation Xrotation
									End Site
									{
										OFFSET 0.000000 0.000000 0.000000
									}
								}
							}
						}
					}
				}
				JOINT RightShoulder
				{
					OFFSET 0.000000 0.000000 0.000000
					CHANNELS 3 Zrotation Yrotation Xrotation
					JOINT RightArm
					{
						OFFSET -3.136600 1.374050 -0.404650
						CHANNELS 3 Zrotation Yrotation Xrotation
						JOINT RightForeArm
						{
							OFFSET -5.241900 -0.000000 -0.000000
							CHANNELS 3 Zrotation Yrotation Xrotation
							JOINT RightHand
							{
								OFFSET -3.444170 -0.000000 -0.000000
								CHANNELS 3 Zrotation Yrotation Xrotation
								JOINT RightFingerBase
								{
									OFFSET 0.000000 0.000000 0.000000
									CHANNELS 3 Zrotation Yrotation Xrotation
									JOINT RightHandIndex1
									{
										OFFSET -0.622530 -0.000000 -0.000000
										CHANNELS 3 Zrotation Yrotation Xrotation
										End Site
										{
											OFFSET 0.000000 0.000000 0.000000
										}
									}
								}
								JOINT RThumb
								{
									OFFSET 0.000000 0.000000 0.000000
									CHANNELS 3 Zrotation Yrotation Xrotation
									End Site
									{
										OFFSET 0.000000 0.000000 0.000000
									}
								}
							}
						}
					}
				}
			}
		}
	}
}
MOTION
Frames: 4
Frame Time: 0.008333
3.761685 17.308852 0.754094 6.383569 -76.184169 5.685122 -10.933923 0.707552 1.814672 -4.827290 6.738452 -18.509291 -2.522482 -1.216362 -0.422715 -0.087248 0.801693 6.611409 0.568200 -0.000000 -37.625800 9.776047 -1.988541 1.291590 3.517092 -7.504880 -10.309353 1.626343 1.176747 -1.337634 -2.490827 -13.046726 -1.820935 -2.305700 0.000001 -32.621800 1.176314 3.259979 -3.611578 0.342499 3.274245 -4.456388 -0.048009 3.399515 -5.477227 -5.820847 3.740471 2.586642 -1.496956 -0.279063 2.890721 0.000000 0.000000 0.000000 2.540335 -1.099898 -3.506271 -91.459398 -22.048192 36.253383 -178.658387 -52.299322 -179.984581 -3.481207 -9.117805 0.341485 0.326051 1.165760 0.000000 0.000000 0.000000 0.000000 0.000000 0.000000 0.000000 -14.571526 9.204587 -0.831755 10.657980 66.785873 -66.533425 -4.971072 13.880948 -0.105334 -14.599929 3.960993 -0.578125 0.225437 -0.476402 -0.000000 0.000000 0.000000 0.000000 0.000000 0.000000 0.000000 
3.763301 17.316198 0.750008 6.328151 -77.246525 5.705805 -10.968024 0.682589 1.705036 -4.795234 7.571646 -18.511287 -2.522941 -1.235528 -0.336639 -0.057621 1.115858 6.532637 0.637900 -0.000000 -37.395200 9.740028 -2.069247 1.496452 3.586936 -6.935953 -10.773470 1.675427 1.127238 -0.946304 -2.379386 -12.420088 -1.759270 -2.216800 -0.000000 -32.551600 1.106127 3.500239 -3.726439 0.434655 3.532777 -4.377397 0.589209 3.644352 -5.089122 -6.359238 4.887461 2.420308 -1.357332 -0.267317 2.841372 0.000000 0.000000 0.000000 2.453096 -1.386557 -3.713767 -92.207004 -21.277421 36.280971 -179.004762 -51.739604 -179.991396 -3.374837 -9.269871 0.338658 0.347695 1.164806 0.000000 0.000000 0.000000 0.000000 0.000000 0.000000 0.000000 -15.236414 10.549333 0.534581 2.590458 66.615313 -82.451129 -4.370900 9.669231 -0.095508 -14.278957 6.069922 -0.835145 0.225163 -0.482707 -0.000000 0.000000 0.000000 0.000000 0.000000 0.000000 0.000000 
3.760337 17.322145 0.748320 6.017136 -78.121955 6.006148 -11.001432 0.661135 1.591845 -4.712034 8.269307 -18.472937 -2.517747 -1.248680 -0.325970 -0.030294 1.379612 6.472981 0.694400 -0.000000 -37.206100 9.703816 -2.126801 1.632318 3.697716 -6.473035 -11.085079 1.722146 1.094485 -0.694194 -2.282066 -11.906237 -1.662927 -2.153500 -0.000001 -32.535600 1.071848 3.662586 -3.750555 0.475736 3.703609 -4.370353 0.928657 3.812073 -5.061039 -6.595412 5.452868 2.346533 -1.284199 -0.261730 2.821779 0.000000 0.000000 0.000000 2.665137 -1.490412 -3.780700 -92.843338 -20.340297 36.274820 -179.292905 -51.168874 -179.997550 -3.253116 -9.408129 0.333234 0.364157 1.166211 0.000000 0.000000 0.000000 0.000000 0.000000 0.000000 0.000000 -15.683811 11.193067 0.937707 0.745547 66.735061 -89.063901 -4.252695 8.065817 -0.092432 -13.964841 7.515221 -0.998316 0.209339 -0.497199 -0.000000 0.000000 0.000000 0.000000 0.000000 0.000000 0.000000 
3.753564 17.326514 0.749159 5.421811 -78.751022 6.602393 -11.029779 0.640647 1.480944 -4.580032 8.779731 -18.383303 -2.505234 -1.254758 -0.380360 -0.005409 1.594368 6.431599 0.738900 0.000000 -37.059200 9.672712 -2.158646 1.691655 3.840233 -6.147053 -11.218514 1.762859 1.076557 -0.588141 -2.205323 -11.534100 -1.542495 -2.117100 0.000000 -32.576300 1.081558 3.758339 -3.682630 0.454695 3.796659 -4.428177 0.918332 3.918457 -5.366534 -6.470744 5.233135 2.375000 -1.302968 -0.264206 2.834074 0.000000 0.000000 0.000000 3.172636 -1.460799 -3.699625 -93.316005 -19.337518 36.243303 -179.485795 -50.624979 179.997534 -3.106759 -9.525128 0.324152 0.372558 1.172301 0.000000 0.000000 0.000000 0.000000 0.000000 0.000000 0.000000 -15.748244 11.022514 0.355816 4.806753 67.714665 -86.210141 -4.443436 8.632381 -0.092959 -13.308696 8.619051 -1.083742 0.177712 -0.521500 -0.000000 0.000000 0.000000 0.000000 0.000000 0.000000 0.000000 
